<svg width="90" height="24" viewBox="0 0 90 24" fill="none" xmlns="http://www.w3.org/2000/svg">
<path d="M10.8873 16.4752C10.9458 16.9573 11.384 17.3079 11.8662 17.3079H21.0847C21.3039 17.3079 21.4792 17.4832 21.4792 17.7024V20.2735C21.4792 20.5219 21.2746 20.7264 21.0263 20.7264H11.1065C9.09036 20.7264 7.4541 19.0902 7.4541 17.0742V15.4234C7.4541 14.4738 7.83395 13.6265 8.46215 13.0129C9.06114 12.414 9.86466 12.0487 10.7704 12.0195C10.8143 12.0195 10.8435 12.0195 10.8873 12.0195H21.0701C21.3039 12.0195 21.4938 12.2094 21.4938 12.4432V14.9997C21.4938 15.2335 21.3039 15.438 21.0555 15.438H11.8223C11.2672 15.4234 10.8143 15.9055 10.8873 16.4752Z" fill="#00AEEF"/>
<path d="M21.4646 8.23438V9.78291C21.4646 9.95822 21.3185 10.1043 21.1432 10.1043H10.8727C10.8289 10.1043 10.7559 10.1043 10.6682 10.1043C9.54329 10.1481 8.49141 10.5426 7.62945 11.2438C7.57102 11.3022 7.46875 11.2584 7.46875 11.1708V8.57038C7.46875 8.23438 7.65867 7.91298 7.98008 7.7815C11.7055 6.08688 17.1548 5.98462 21.2747 7.9422C21.3915 7.98603 21.4646 8.1029 21.4646 8.23438Z" fill="#0076BE"/>
<path d="M2.82269 4.89175V6.98081C2.82269 6.99542 2.80808 7.01003 2.79347 6.99542L0.339082 5.94359C0.324473 5.92898 0.324473 5.91437 0.339082 5.89976L2.79347 4.87714C2.80808 4.86254 2.82269 4.87714 2.82269 4.89175Z" fill="#00AEEF"/>
<path d="M3.31912 4.65577C3.30451 4.65577 3.30451 4.67038 3.30451 4.68499V7.21232V9.09685C3.30451 9.12607 3.27529 9.15529 3.24607 9.15529C2.3695 9.14068 2.16497 10.0026 2.88083 10.2802C2.91005 10.2948 2.93927 10.324 2.93927 10.3532V11.7557C2.96849 11.9017 3.04154 12.004 3.17302 12.0478C3.20224 12.0624 3.21685 12.0917 3.21685 12.1209L2.17958 18.2566C2.16497 18.3004 2.19419 18.3442 2.23802 18.3588L3.30451 18.7679C3.34834 18.7825 3.37756 18.7679 3.40677 18.7387L3.7574 18.3442H4.21029C4.26873 18.3442 4.31256 18.3004 4.31256 18.242L3.74279 12.0917C3.74279 12.0624 3.7574 12.0478 3.78662 12.0332C3.88889 11.9894 3.93271 11.9017 3.93271 11.7849V10.4847C3.93271 10.4555 3.94732 10.4263 3.97654 10.4116C4.75084 10.0464 4.78006 9.43285 3.80123 9.16989C3.77201 9.16989 3.7574 9.14068 3.7574 9.12607V7.43145V4.50969C3.7574 4.49508 3.74279 4.48047 3.71357 4.48047L3.31912 4.65577Z" fill="#0076BE"/>
<path d="M22.7347 8.41102V7.31536C22.7347 7.27154 22.7055 7.22771 22.6617 7.19849L22.0189 6.89171C19.7982 5.81065 17.1831 5.2263 14.422 5.2263C11.6608 5.2263 8.98725 5.82526 6.88349 6.89171L6.29911 7.18388C6.24067 7.2131 6.19684 7.28615 6.19684 7.35919V8.41102C6.19684 8.42563 6.18224 8.44024 6.15302 8.44024L4.79434 7.85589L4.34145 7.66597L4.20996 7.60754V4.34977C4.20996 4.30595 4.23918 4.26212 4.2684 4.24751L14.3927 0.0109566C14.4366 -0.0036522 14.4658 -0.0036522 14.495 0.0109566L28.6662 5.83987C28.7538 5.86909 28.7538 6.00057 28.6662 6.02979L22.7786 8.45485C22.7493 8.45485 22.7347 8.44024 22.7347 8.41102Z" fill="#00AEEF"/>
<path d="M80.5947 23.7828V12.0955H82.325V15.7763L82.0576 15.7606C82.0995 14.8902 82.2778 14.1614 82.5924 13.5741C82.9175 12.9869 83.3474 12.5517 83.8823 12.2686C84.4171 11.9749 85.0148 11.8281 85.6755 11.8281C86.2837 11.8281 86.829 11.9382 87.3114 12.1585C87.8042 12.3787 88.2237 12.688 88.5698 13.0865C88.9263 13.485 89.1989 13.9517 89.3877 14.4865C89.5765 15.0108 89.6708 15.5771 89.6708 16.1853V16.5156C89.6708 17.1343 89.5765 17.7111 89.3877 18.2459C89.2094 18.7702 88.942 19.2369 88.5855 19.6458C88.2394 20.0443 87.82 20.3589 87.3271 20.5896C86.8342 20.8099 86.2837 20.92 85.6755 20.92C85.0358 20.92 84.4485 20.7889 83.9137 20.5267C83.3894 20.2541 82.9647 19.8398 82.6396 19.2841C82.3145 18.7178 82.131 17.989 82.0891 17.0976L82.7812 18.1515V23.7828H80.5947ZM85.1249 19.0796C85.5968 19.0796 86.0058 18.9642 86.3518 18.7335C86.7084 18.5028 86.9863 18.183 87.1855 17.774C87.3848 17.3545 87.4844 16.8826 87.4844 16.3583C87.4844 15.813 87.3848 15.3411 87.1855 14.9426C86.9863 14.5441 86.7084 14.2348 86.3518 14.0146C86.0058 13.7839 85.5968 13.6685 85.1249 13.6685C84.695 13.6685 84.2965 13.7629 83.9294 13.9517C83.5729 14.1404 83.2793 14.4183 83.0486 14.7853C82.8284 15.1524 82.7183 15.5928 82.7183 16.1066V16.7358C82.7183 17.2287 82.8336 17.6482 83.0643 17.9942C83.295 18.3403 83.5939 18.6077 83.9609 18.7964C84.3279 18.9852 84.7159 19.0796 85.1249 19.0796Z" fill="#0076BE"/>
<path d="M74.6631 20.9359C73.929 20.9359 73.2841 20.8101 72.7283 20.5584C72.183 20.3067 71.7268 19.9711 71.3598 19.5517C71.0032 19.1217 70.7306 18.6446 70.5418 18.1203C70.3635 17.5959 70.2744 17.0611 70.2744 16.5158V16.217C70.2744 15.6507 70.3635 15.1054 70.5418 14.5811C70.7306 14.0462 71.0032 13.5743 71.3598 13.1654C71.7268 12.7459 72.1777 12.4156 72.7125 12.1744C73.2474 11.9227 73.8661 11.7969 74.5687 11.7969C75.4915 11.7969 76.2622 12.0014 76.881 12.4103C77.5102 12.8088 77.9821 13.3384 78.2967 13.9991C78.6112 14.6492 78.7685 15.3518 78.7685 16.1069V16.8933H71.2025V15.5563H77.4L76.7237 16.217C76.7237 15.6717 76.645 15.205 76.4877 14.817C76.3304 14.429 76.0892 14.1301 75.7641 13.9204C75.4495 13.7107 75.0511 13.6058 74.5687 13.6058C74.0863 13.6058 73.6773 13.7159 73.3417 13.9361C73.0062 14.1564 72.7492 14.4762 72.571 14.8957C72.4032 15.3046 72.3193 15.7975 72.3193 16.3743C72.3193 16.9091 72.4032 17.3862 72.571 17.8057C72.7388 18.2147 72.9957 18.5397 73.3417 18.7809C73.6878 19.0116 74.1282 19.127 74.6631 19.127C75.1979 19.127 75.6331 19.0221 75.9686 18.8124C76.3042 18.5922 76.5192 18.3248 76.6136 18.0102H78.627C78.5011 18.5974 78.2599 19.1113 77.9034 19.5517C77.5469 19.9921 77.0907 20.3329 76.5349 20.5741C75.9896 20.8153 75.3657 20.9359 74.6631 20.9359Z" fill="#0076BE"/>
<path d="M64.3428 20.6358V12.0945H66.0731V15.7123H66.0259C66.0259 14.4854 66.288 13.5574 66.8124 12.9282C67.3367 12.299 68.1074 11.9844 69.1246 11.9844H69.4392V13.8877H68.8415C68.1075 13.8877 67.5359 14.0869 67.127 14.4854C66.7285 14.8734 66.5292 15.4397 66.5292 16.1842V20.6358H64.3428Z" fill="#0076BE"/>
<path d="M56.0206 17.1122V15.1774H58.2542C58.7052 15.1774 59.0827 15.0883 59.3868 14.91C59.7014 14.7317 59.9373 14.4853 60.0946 14.1707C60.2624 13.8561 60.3463 13.4943 60.3463 13.0853C60.3463 12.6763 60.2624 12.3146 60.0946 12C59.9373 11.6854 59.7014 11.4442 59.3868 11.2764C59.0827 11.0981 58.7052 11.009 58.2542 11.009H56.0206V9.07422H58.0655C59.0302 9.07422 59.8482 9.23152 60.5193 9.54611C61.201 9.86071 61.72 10.3116 62.0766 10.8989C62.4331 11.4756 62.6114 12.1625 62.6114 12.9595V13.2112C62.6114 14.0081 62.4331 14.7003 62.0766 15.2875C61.72 15.8643 61.201 16.3152 60.5193 16.6403C59.8482 16.9549 59.0302 17.1122 58.0655 17.1122H56.0206ZM54.1016 20.6356V9.07422H56.3352V20.6356H54.1016Z" fill="#0076BE"/>
<path d="M41.449 24.0012V22.1294H43.0535C43.3576 22.1294 43.6093 22.0874 43.8085 22.0036C44.0182 21.9301 44.1913 21.8043 44.3276 21.626C44.4639 21.4582 44.5688 21.2223 44.6422 20.9182L46.9387 12.0938H49.0308L46.4983 21.3901C46.3305 22.0298 46.0946 22.5384 45.7905 22.9159C45.4864 23.3039 45.0931 23.5818 44.6107 23.7496C44.1388 23.9173 43.5516 24.0012 42.849 24.0012H41.449ZM44.1074 20.4463V18.716H45.932V20.4463H44.1074ZM43.3681 20.4463L40.5996 12.0938H42.8018L45.4287 20.4463H43.3681Z" fill="#0076BE"/>
<path d="M36.2441 20.9041C35.0696 20.9041 34.1468 20.6577 33.4757 20.1648C32.815 19.6615 32.469 18.9694 32.4375 18.0885H34.4037C34.4352 18.3821 34.5977 18.6495 34.8914 18.8907C35.185 19.1319 35.6464 19.2525 36.2756 19.2525C36.7999 19.2525 37.2141 19.1581 37.5182 18.9694C37.8328 18.7806 37.9901 18.5237 37.9901 18.1986C37.9901 17.9155 37.8695 17.69 37.6284 17.5222C37.3976 17.3544 36.9992 17.2443 36.4329 17.1919L35.6778 17.1133C34.7236 17.0084 33.9895 16.7357 33.4757 16.2953C32.9618 15.8549 32.7049 15.2676 32.7049 14.5336C32.7049 13.9463 32.8517 13.4534 33.1453 13.0549C33.439 12.6565 33.8427 12.3576 34.3565 12.1583C34.8809 11.9486 35.4786 11.8438 36.1497 11.8438C37.1984 11.8438 38.0478 12.0745 38.698 12.5359C39.3481 12.9973 39.689 13.6737 39.7204 14.565H37.7542C37.7332 14.2714 37.5864 14.0197 37.3138 13.81C37.0411 13.6003 36.6479 13.4954 36.134 13.4954C35.6726 13.4954 35.3161 13.5845 35.0644 13.7628C34.8127 13.9411 34.6869 14.1718 34.6869 14.4549C34.6869 14.7276 34.7865 14.9373 34.9857 15.0841C35.1955 15.2309 35.531 15.3305 35.9924 15.383L36.7475 15.4616C37.7542 15.5665 38.5407 15.8444 39.107 16.2953C39.6837 16.7462 39.9721 17.3544 39.9721 18.12C39.9721 18.6862 39.8148 19.1791 39.5002 19.5986C39.1961 20.0075 38.7661 20.3274 38.2104 20.5581C37.6546 20.7888 36.9992 20.9041 36.2441 20.9041Z" fill="#0076BE"/>
<path d="M29.0722 20.6359V18.1034H28.7104V15.2877C28.7104 14.7949 28.5898 14.4278 28.3486 14.1867C28.1074 13.9455 27.7352 13.8249 27.2318 13.8249C26.9697 13.8249 26.6551 13.8301 26.288 13.8406C25.921 13.8511 25.5487 13.8668 25.1712 13.8878C24.8042 13.8983 24.4738 13.914 24.1802 13.935V12.0789C24.4214 12.0579 24.6941 12.0369 24.9982 12.0159C25.3023 11.995 25.6116 11.9845 25.9262 11.9845C26.2513 11.974 26.5554 11.9688 26.8386 11.9688C27.7194 11.9688 28.4483 12.0841 29.025 12.3148C29.6123 12.5455 30.0527 12.9073 30.3463 13.4002C30.6504 13.893 30.8025 14.538 30.8025 15.3349V20.6359H29.0722ZM26.3195 20.8561C25.7008 20.8561 25.1555 20.746 24.6836 20.5258C24.2222 20.3056 23.8604 19.991 23.5982 19.582C23.3465 19.173 23.2207 18.6801 23.2207 18.1034C23.2207 17.4742 23.3728 16.9604 23.6769 16.5619C23.9915 16.1634 24.4267 15.8645 24.9824 15.6653C25.5487 15.466 26.2094 15.3664 26.9644 15.3664H28.9464V16.672H26.9329C26.4296 16.672 26.0416 16.7978 25.7689 17.0495C25.5068 17.2907 25.3757 17.6053 25.3757 17.9933C25.3757 18.3813 25.5068 18.6959 25.7689 18.9371C26.0416 19.1783 26.4296 19.2989 26.9329 19.2989C27.2371 19.2989 27.515 19.2464 27.7666 19.1416C28.0288 19.0262 28.2438 18.8374 28.4116 18.5753C28.5898 18.3026 28.6894 17.9356 28.7104 17.4742L29.2452 18.0877C29.1928 18.6854 29.046 19.1887 28.8048 19.5977C28.5741 20.0067 28.249 20.3213 27.8295 20.5415C27.4206 20.7512 26.9172 20.8561 26.3195 20.8561Z" fill="#0076BE"/>
</svg>
