<svg width="242" height="197" viewBox="0 0 242 197" fill="none" xmlns="http://www.w3.org/2000/svg">
    <rect width="118" height="197" fill="white" />
    <path fill-rule="evenodd" clip-rule="evenodd"
        d="M210.194 101.691C210.52 84.9256 206.603 67.7903 197.971 51.9361C171.847 3.95428 112.431 -14.1237 65.2624 11.5577C18.0935 37.2392 1.03318 96.9551 27.1572 144.937C53.2813 192.919 112.697 210.997 159.866 185.315C177.075 175.946 190.277 162.045 198.836 145.837C217.951 143.072 231.276 137.453 239.027 133.232C243.616 130.734 245.984 128.78 245.984 128.78C247.421 127.998 247.699 126.168 247.089 124.507C246.731 122.708 245.267 121.162 243.751 120.658C228.367 114.928 217.524 107.889 210.194 101.691Z"
        fill="white" />
</svg>