<svg width="42" height="17" viewBox="0 0 42 17" fill="none" xmlns="http://www.w3.org/2000/svg">
<rect width="42" height="17" rx="8.5" fill="#323436"/>
<path d="M7.69405 7.13666C8.57646 8.37137 10.41 8.20418 11.0869 6.92028C10.4866 6.61519 10.4088 6.06796 10.5284 5.68557C10.6518 5.29147 11.0319 5.00746 11.462 5.00014C11.8953 4.99282 12.3006 5.27507 12.4361 5.68118C12.556 6.03956 12.506 6.56629 11.9288 6.89569C12.2686 7.50294 12.773 7.89382 13.474 7.97639C14.2403 8.06657 14.8572 7.77231 15.3397 7.16301C15.1701 7.03506 15.0727 6.86582 15.0171 6.67287C14.8208 5.99125 15.3957 5.3389 16.1096 5.43172C16.757 5.51575 17.1611 6.1192 16.9636 6.73143C16.8517 7.07898 16.6019 7.30355 16.2378 7.38729C16.1585 7.40544 16.1114 7.43589 16.0744 7.50997C15.6656 8.32716 15.2515 9.14171 14.8427 9.95861C14.8078 10.0286 14.769 10.0517 14.692 10.0517C12.5839 10.0497 10.4754 10.0497 8.36689 10.052C8.28815 10.052 8.25144 10.0259 8.21711 9.95714C7.80654 9.13673 7.39153 8.31867 6.98037 7.49855C6.9487 7.4356 6.90903 7.40632 6.84125 7.39461C6.4147 7.31907 6.14266 7.06229 6.0358 6.65823C5.93013 6.25857 6.06244 5.91571 6.37917 5.64721C6.77672 5.3105 7.36874 5.33773 7.72484 5.70577C8.09574 6.08875 8.11409 6.67463 7.76687 7.05965C7.74497 7.08454 7.72158 7.10767 7.69405 7.13666Z" fill="#FFD43A"/>
<path d="M14.7738 10.7618C14.7738 11.0578 14.7848 11.3465 14.7703 11.634C14.7602 11.836 14.5737 11.981 14.3482 11.9959C14.3186 11.9979 14.289 11.9965 14.2594 11.9965C12.4362 11.9965 10.6131 11.9927 8.78996 12C8.45399 12.0015 8.24442 11.788 8.26395 11.482C8.27905 11.2452 8.26691 11.0068 8.26691 10.7615C10.4355 10.7618 12.6005 10.7618 14.7738 10.7618Z" fill="#FFD43A"/>
<path d="M25.9331 7.13861C25.9331 7.50825 25.8459 7.85479 25.6715 8.17822C25.5035 8.50165 25.2353 8.76238 24.867 8.9604C24.5052 9.15842 24.0465 9.25743 23.4908 9.25743H22.4569C22.4016 9.25743 22.3569 9.3022 22.3569 9.35743V11.8109C22.3569 11.8661 22.3121 11.9109 22.2569 11.9109H21.1C21.0448 11.9109 21 11.8661 21 11.8109V5.1C21 5.04477 21.0448 5 21.1 5H23.4908C24.0142 5 24.46 5.09241 24.8283 5.27723C25.1966 5.46205 25.4712 5.71617 25.6521 6.0396C25.8395 6.36304 25.9331 6.72937 25.9331 7.13861ZM23.4326 8.13861C23.8074 8.13861 24.0852 8.05281 24.2661 7.88119C24.4471 7.70297 24.5375 7.45545 24.5375 7.13861C24.5375 6.46535 24.1692 6.12871 23.4326 6.12871H22.4569C22.4016 6.12871 22.3569 6.17348 22.3569 6.22871V8.03861C22.3569 8.09384 22.4016 8.13861 22.4569 8.13861H23.4326Z" fill="white"/>
<path d="M28.2534 6.91654C28.2534 7.01794 28.3979 7.06181 28.4643 6.98517C28.5992 6.82942 28.755 6.69905 28.9318 6.59406C29.1896 6.44439 29.4794 6.3626 29.801 6.34868C29.8562 6.34629 29.901 6.39131 29.901 6.44653V7.70198C29.901 7.75721 29.8562 7.80198 29.801 7.80198H29.5424C29.1159 7.80198 28.7929 7.90429 28.5732 8.10891C28.36 8.31353 28.2534 8.66997 28.2534 9.17822V11.8109C28.2534 11.8661 28.2086 11.9109 28.1533 11.9109H26.9965C26.9413 11.9109 26.8965 11.8661 26.8965 11.8109V6.52574C26.8965 6.47051 26.9413 6.42574 26.9965 6.42574H28.1534C28.2086 6.42574 28.2534 6.47051 28.2534 6.52574V6.91654Z" fill="white"/>
<path d="M33.1991 12C32.6822 12 32.217 11.8845 31.8034 11.6535C31.3899 11.4158 31.0636 11.0825 30.8246 10.6535C30.592 10.2244 30.4757 9.72937 30.4757 9.16832C30.4757 8.60726 30.5952 8.11221 30.8343 7.68317C31.0798 7.25413 31.4125 6.92409 31.8325 6.69307C32.2525 6.45545 32.7209 6.33663 33.2378 6.33663C33.7547 6.33663 34.2232 6.45545 34.6431 6.69307C35.0631 6.92409 35.3926 7.25413 35.6317 7.68317C35.8772 8.11221 36 8.60726 36 9.16832C36 9.72937 35.874 10.2244 35.622 10.6535C35.3765 11.0825 35.0405 11.4158 34.6141 11.6535C34.1941 11.8845 33.7224 12 33.1991 12ZM33.1991 10.7921C33.4446 10.7921 33.674 10.7327 33.8872 10.6139C34.1069 10.4884 34.2813 10.3036 34.4105 10.0594C34.5398 9.81518 34.6044 9.51815 34.6044 9.16832C34.6044 8.64686 34.4687 8.24753 34.1973 7.9703C33.9324 7.68647 33.6061 7.54455 33.2184 7.54455C32.8308 7.54455 32.5045 7.68647 32.2396 7.9703C31.9811 8.24753 31.8519 8.64686 31.8519 9.16832C31.8519 9.68977 31.9779 10.0924 32.2299 10.3762C32.4883 10.6535 32.8114 10.7921 33.1991 10.7921Z" fill="white"/>
</svg>
